<?xml version="1.0" encoding="UTF-8" standalone="no"?>
<!-- Created with Inkscape (http://www.inkscape.org/) -->

<svg
   xmlns:dc="http://purl.org/dc/elements/1.1/"
   xmlns:cc="http://creativecommons.org/ns#"
   xmlns:rdf="http://www.w3.org/1999/02/22-rdf-syntax-ns#"
   xmlns:svg="http://www.w3.org/2000/svg"
   xmlns="http://www.w3.org/2000/svg"
   xmlns:sodipodi="http://sodipodi.sourceforge.net/DTD/sodipodi-0.dtd"
   xmlns:inkscape="http://www.inkscape.org/namespaces/inkscape"
   width="210mm"
   height="297mm"
   viewBox="0 0 744.09448819 1052.3622047"
   id="svg2"
   version="1.1"
   inkscape:version="0.91 r13725"
   sodipodi:docname="Stupid thing.svg">
  <defs
     id="defs4" />
  <sodipodi:namedview
     id="base"
     pagecolor="#ffffff"
     bordercolor="#666666"
     borderopacity="1.0"
     inkscape:pageopacity="0.0"
     inkscape:pageshadow="2"
     inkscape:zoom="0.35"
     inkscape:cx="-126.42857"
     inkscape:cy="520"
     inkscape:document-units="px"
     inkscape:current-layer="layer1"
     showgrid="false"
     inkscape:window-width="1366"
     inkscape:window-height="705"
     inkscape:window-x="-8"
     inkscape:window-y="-8"
     inkscape:window-maximized="1" />
  <metadata
     id="metadata7">
    <rdf:RDF>
      <cc:Work
         rdf:about="">
        <dc:format>image/svg+xml</dc:format>
        <dc:type
           rdf:resource="http://purl.org/dc/dcmitype/StillImage" />
        <dc:title></dc:title>
      </cc:Work>
    </rdf:RDF>
  </metadata>
  <g
     inkscape:label="Layer 1"
     inkscape:groupmode="layer"
     id="layer1">
    <path
       style="fill:#000000"
       d="M 191.2864,644.58838 C 143.11815,627.95338 105.61663,605.68772 78.53367,577.64402 60.74927,559.22874 50.0825,541.53207 44.63612,521.40638 40.90857,507.63219 40.90857,485.48517 44.63612,471.71098 49.63629,453.23413 60.62123,434.18154 75.00626,419.03614 L 83.33837,410.2636 84.16021,398.41114 C 86.28532,367.76284 90.63176,344.83259 98.8461,320.93368 114.18421,276.30879 140.37601,247.11452 169.65876,242.00351 185.66798,239.20927 204.40993,245.52419 219.11783,258.66827 233.75298,271.74734 247.88088,294.47637 256.15923,318.26059 L 260.23219,329.96252 265.33931,329.30767 C 268.14823,328.94749 279.44643,327.48717 290.44643,326.06248 341.8069,319.41042 395.33595,319.41042 446.69643,326.06248 457.69643,327.48717 468.99463,328.94749 471.80354,329.30767 L 476.91066,329.96252 480.98363,318.26059 C 489.26198,294.47637 503.38988,271.74734 518.02503,258.66827 532.73293,245.52419 551.47488,239.20927 567.48409,242.00351 596.76684,247.11452 622.95864,276.30879 638.29675,320.93368 646.51109,344.83259 650.85753,367.76284 652.98264,398.41114 L 653.80448,410.2636 662.13659,419.03614 C 676.52161,434.18154 687.50655,453.23413 692.50673,471.71098 696.23428,485.48517 696.23428,507.63219 692.50673,521.40638 687.06035,541.53207 676.39358,559.22874 658.60918,577.64402 631.35303,605.86706 593.54785,628.24593 545.40358,644.65638 L 526.98753,650.93368 368.09198,650.85365 209.19643,650.77364 191.2864,644.58838 Z M 399.19643,582.92813 C 415.0943,577.54923 426.63534,570.36977 438.57143,558.43368 450.43071,546.57439 457.56209,535.15485 463.16068,519.05868 466.40338,509.73582 466.63889,507.70442 466.63889,489.05868 466.63889,470.41294 466.40338,468.38154 463.16068,459.05868 457.56209,442.9625 450.43071,431.54297 438.57143,419.68368 426.71214,407.82439 415.2926,400.69302 399.19643,395.09443 389.87356,391.85173 387.84216,391.61622 369.19643,391.61622 350.55069,391.61622 348.51929,391.85173 339.19643,395.09443 323.10025,400.69302 311.68071,407.82439 299.82143,419.68368 287.96214,431.54297 280.83076,442.9625 275.23218,459.05868 271.99336,468.37038 271.75285,470.43528 271.73796,489.05868 271.72258,508.29332 271.87089,509.47624 275.61386,519.97029 285.58708,547.93194 305.0936,568.93802 331.31753,579.95614 345.35559,585.85432 353.43143,587.18742 372.32143,586.7248 386.67751,586.37323 390.68911,585.8065 399.19643,582.92813 Z"
       id="path4147"
       inkscape:connector-curvature="0" />
  </g>
</svg>
